<svg width="278" height="122" viewBox="0 0 278 122" fill="none" xmlns="http://www.w3.org/2000/svg">
<path d="M112.219 0.434464C103.17 2.08592 102.582 2.23803 80.3507 8.88732C64.0576 13.7548 56.8138 15.906 48.0908 18.4701C46.5028 18.9264 45.1106 19.3176 44.9801 19.3176C44.8278 19.3176 43.9142 18.4484 42.9135 17.3836C39.0197 13.255 34.495 10.6692 29.9486 9.95207C27.7951 9.62613 24.2058 9.82169 22.161 10.4084C16.4834 12.0164 10.7406 16.8839 6.99904 23.1855C2.30036 31.0951 -0.35353 42.4162 0.0380274 52.7813C0.734129 71.3385 8.93507 86.4406 20.6818 90.8083C22.8353 91.5906 24.8149 91.9382 27.273 91.9165C33.2116 91.9165 38.6934 89.0916 43.6749 83.5288C46.0677 80.8344 49.1567 75.554 50.4619 71.8383C50.7447 71.0343 51.0275 70.3824 51.0927 70.3824C51.158 70.3824 51.5278 71.056 51.9193 71.8817C52.8112 73.7505 54.4209 75.5323 55.8784 76.3363C56.8791 76.8796 57.1836 76.9447 58.554 76.8578C60.8816 76.7492 62.2303 75.9886 64.906 73.3159L67.0813 71.1429L67.103 75.7061C67.1683 85.2455 69.0608 93.9591 72.8459 101.999C79.002 115.124 90.4224 123.077 101.364 121.882C113.851 120.513 124.292 109.583 129.056 92.8726C130.231 88.7657 131.253 82.3554 131.405 78.1181L131.471 76.6405L137.67 74.837C141.086 73.8374 148.329 71.7513 153.768 70.1651C169.408 65.6453 184.418 61.2124 204.017 55.3454C227.728 48.2615 227.815 48.2398 234.907 46.936C239.867 46.0451 240.867 45.9582 243.086 46.2624C249.612 47.175 256.203 51.195 263.73 58.9091C267.276 62.4945 269.69 65.3628 272.583 69.3393L274.454 71.86L276.238 70.6866L278 69.4915L277.63 68.9048C273.997 63.2116 266.079 54.4328 260.793 50.1955C255.899 46.2624 251.091 43.6548 246.523 42.4597C243.064 41.5253 240.106 41.5253 235.016 42.4597C227.228 43.8939 225.749 44.285 204.931 50.5214C196.339 53.0855 182.721 57.149 174.651 59.5175C161.338 63.4289 155.421 65.1455 137.736 70.2737C134.581 71.1646 131.884 71.9686 131.732 72.0121C131.514 72.099 131.384 71.4254 131.188 69.1003C130.013 55.541 124.662 43.1551 116.874 35.8539C109.522 28.9873 100.69 26.6405 92.3802 29.335C86.1371 31.3558 80.3942 35.9843 76.0218 42.5684C73.0417 47.0447 70.3225 53.4984 68.8215 59.6696C68.43 61.3211 67.4076 63.1681 65.08 66.4058C62.3826 70.1868 59.8157 72.5553 58.4018 72.5553C57.0966 72.5553 55.3346 69.7305 54.2904 65.8843L53.7466 63.8852L54.3774 63.9069C55.6391 63.9504 56.618 62.4076 57.3141 59.1916C57.8144 56.823 57.8362 51.3689 57.3141 49.0221C56.6615 46.0234 55.6391 44.3067 54.508 44.3067C54.0076 44.3067 53.9641 44.1981 53.5943 41.8513C52.6372 35.7018 51.0275 30.5301 48.5693 25.5757L47.3947 23.2507L49.2002 22.7074C50.1791 22.4032 54.3557 21.1646 58.4888 19.9695C62.6219 18.7526 72.9546 15.667 81.4384 13.1246C103.561 6.49706 104.714 6.19283 112.437 4.8456C118.027 3.88949 121.399 4.34581 126.25 6.71435C133.276 10.1259 141.782 18.0355 148.634 27.5749C149.461 28.7048 150.2 29.7261 150.309 29.8348C150.483 30.0303 153.985 27.8791 153.985 27.5966C153.985 27.3358 149.939 21.9251 148.003 19.6001C145.327 16.3841 140.433 11.408 137.67 9.12634C128.469 1.47749 120.812 -1.13007 112.219 0.434464Z" fill="#67709C"/>
</svg>
