<svg width="182" height="154" viewBox="0 0 182 154" fill="none" xmlns="http://www.w3.org/2000/svg">
<path d="M118.157 0.0752273C117.776 0.123375 117.169 0.183559 116.817 0.183559C116.464 0.195596 115.886 0.315965 115.505 0.472445C114.8 0.76133 115.152 0.460408 94.9519 17.5889C89.1682 22.5 74.8926 34.597 63.2125 44.4914C31.586 71.2734 24.293 77.4965 23.9827 77.9178C23.8275 78.1345 23.4467 79.0854 23.1504 80.0242C22.8542 80.9752 21.8385 84.177 20.8934 87.1621C19.9483 90.1352 18.4248 94.962 17.5079 97.875C15.8292 103.195 12.754 112.849 12.2885 114.305C12.0487 115.064 10.4829 119.999 10.102 121.227C9.93275 121.744 9.1569 124.212 8.19767 127.245C7.71805 128.762 6.49079 132.637 6.20867 133.564C6.0535 134.058 5.67262 135.249 5.36228 136.212C5.06605 137.175 4.68518 138.367 4.53001 138.861C4.37484 139.354 3.93754 140.738 3.55667 141.93C3.1758 143.122 2.54101 145.156 2.13192 146.444C1.73695 147.732 1.28554 149.152 1.13037 149.61C0.495586 151.439 0.636649 152.306 1.69463 153.196C2.7385 154.099 3.74005 154.208 5.89833 153.69C6.43437 153.558 7.3936 153.329 8.0566 153.184C8.7196 153.04 9.70705 152.811 10.2431 152.691C10.7932 152.559 13.8684 151.86 17.0847 151.138C23.1081 149.778 24.5328 149.453 26.1128 149.092C27.6362 148.743 38.4417 146.287 42.8006 145.312C44.7332 144.867 46.7645 144.41 47.8366 144.157C49.5011 143.772 84.6683 135.767 87.2639 135.189C88.6604 134.876 90.0005 134.539 90.2262 134.443C90.861 134.178 92.3845 132.89 122.741 107.143C128.44 102.305 142.631 90.2797 154.269 80.4215C183.751 55.457 180.775 58.0328 181.071 57.2625C181.241 56.8171 181.283 56.456 181.226 56.0588C181.17 55.7579 181.114 55.0477 181.085 54.482C181.043 53.6875 180.846 52.869 180.168 50.8107C179.689 49.3543 178.786 46.5858 178.165 44.6719C177.545 42.746 176.882 40.9525 176.684 40.6757C176.332 40.146 175.429 39.6766 174.78 39.6766C173.792 39.6886 173.299 40.0618 165.272 46.8867C160.927 50.57 143.097 65.6883 125.633 80.4816C84.5696 115.256 87.6307 112.62 87.0805 113.607C86.8266 114.053 86.488 114.859 86.3188 115.413C85.825 117.074 85.952 117.712 87.7294 123.152L89.2811 127.847L88.2654 128.726L87.2498 129.604L74.554 132.493C67.5855 134.082 58.8678 136.056 55.186 136.887L48.4996 138.403L42.5608 133.36C24.6316 118.157 19.2006 113.511 19.2006 113.354C19.2006 113.258 19.7649 111.392 20.4561 109.202C21.1473 107.011 22.2617 103.508 22.9247 101.426C23.5736 99.3435 25.1112 94.4926 26.3244 90.6528C27.5375 86.813 28.7507 82.9974 29.0046 82.1788L29.4842 80.6863L30.5139 79.7955C31.1346 79.2659 31.6142 78.9409 31.7412 78.977C31.8399 79.0131 34.4637 79.615 37.5671 80.3131C43.8868 81.7335 44.4934 81.8057 46.5811 81.3363C48.8099 80.8428 49.0074 80.7103 54.255 76.2808C61.153 70.4549 99.48 37.9794 112.021 27.3388C117.875 22.3796 125.774 15.6871 129.555 12.4732C133.349 9.25937 136.566 6.43071 136.721 6.18997C137.327 5.17887 136.904 4.10759 135.705 3.59C135.353 3.44556 131.868 2.59094 127.947 1.70021C120.64 0.0270797 119.624 -0.141437 118.157 0.0752273Z" fill="#4B8192"/>
<path d="M143.04 9.75283C142.589 9.89727 142.053 10.15 141.841 10.2945C141.616 10.4389 138.541 13.0148 135.014 16.012C131.487 19.0092 114.066 33.7664 96.2919 48.8125C52.7033 85.7417 54.7346 83.9964 54.255 84.8751C53.7753 85.7417 53.6907 87.0297 54.0716 87.6556C54.4525 88.2574 78.532 108.624 79.1245 108.841C79.9286 109.129 81.4379 109.021 82.4395 108.576C83.3987 108.154 81.4803 109.755 107.718 87.5352C166.852 37.4256 170.365 34.4285 170.816 33.6581C171.338 32.7553 171.422 31.4915 171.013 30.8053C170.675 30.2396 146.821 10.0056 146.116 9.68061C145.439 9.36765 144.014 9.40376 143.04 9.75283Z" fill="#4B8192"/>
</svg>
